<?xml version="1.0" encoding="UTF-8"?>
<svg width="20px" height="20px" viewBox="0 0 20 20" version="1.1" xmlns="http://www.w3.org/2000/svg" xmlns:xlink="http://www.w3.org/1999/xlink">
    <title>5964CECF-8731-4429-AFC0-0849B4646DAB</title>
    <g id="Page-1" stroke="none" stroke-width="1" fill="none" fill-rule="evenodd">
        <g id="ACAAI-stickyfooter-v1" transform="translate(-150.000000, -727.000000)">
            <g id="sticky-footer" transform="translate(0.000000, 707.000000)">
                <g id="iconfinder_181_warning_notice_1473852" transform="translate(150.000000, 20.000000)">
                    <path d="M19.6833333,15.875 L11.9083333,2.175 C11.5290301,1.50841853 10.8211098,1.09673874 10.0541667,1.09673874 C9.2872235,1.09673874 8.57930328,1.50841853 8.2,2.175 L0.416666667,15.875 C0.043111444,16.5356743 0.0486958547,17.345068 0.431331723,18.0005249 C0.813967592,18.6559819 1.51603108,19.0587922 2.275,19.0583337 L17.825,19.0583337 C18.5839689,19.0587922 19.2860324,18.6559819 19.6686683,18.0005249 C20.0513041,17.345068 20.0568886,16.5356743 19.6833333,15.875 Z" id="Path" fill="#FFCD00" fill-rule="nonzero"></path>
                    <path d="M11.0166667,15.9666667 C10.7894031,16.1745774 10.491319,16.2878494 10.1833333,16.2833333 C9.87703199,16.2868667 9.58023487,16.1770517 9.35,15.975 C9.10281433,15.7530285 8.96823773,15.4318798 8.98333333,15.1 C8.98106037,14.784019 9.10615213,14.4804401 9.33037283,14.2577874 C9.55459352,14.0351347 9.85904274,13.9121764 10.175,13.9166667 C10.4871329,13.9153484 10.7869633,14.0382788 11.0083333,14.2583333 C11.2355106,14.4755583 11.3622727,14.7773727 11.3583333,15.0916667 C11.3786242,15.4193802 11.253658,15.7394157 11.0166667,15.9666667 Z" id="Path" fill="#215371" fill-rule="nonzero"></path>
                    <path d="M11.3333333,8.025 L11.025,11.5166667 C11.0205655,11.8532829 10.9556437,12.1863595 10.8333333,12.5 C10.7182519,12.7531818 10.4612104,12.9113612 10.1833333,12.9 C9.90921063,12.9139862 9.6545328,12.7585335 9.54166667,12.5083333 C9.41301777,12.1806896 9.3370769,11.8347368 9.31666667,11.4833333 L9.09166667,8.08333333 C9.05,7.40833333 9.025,6.94166667 9.025,6.65 C9.00564833,6.28507571 9.12806279,5.92678948 9.36666667,5.65 C9.6003231,5.40454405 9.9280032,5.27104475 10.2666667,5.28333333 C10.6514317,5.26333115 11.0089443,5.48181111 11.1666667,5.83333333 C11.331357,6.23442786 11.4053444,6.66696971 11.3833333,7.1 C11.3818519,7.40896689 11.365165,7.71767366 11.3333333,8.025 Z" id="Path" fill="#215371" fill-rule="nonzero"></path>
                    <rect id="Rectangle" x="0" y="0" width="20" height="20"></rect>
                </g>
            </g>
        </g>
    </g>
</svg>